<mxfile host="Electron" agent="Mozilla/5.0 (Windows NT 10.0; Win64; x64) AppleWebKit/537.36 (KHTML, like Gecko) draw.io/25.0.2 Chrome/128.0.6613.186 Electron/32.2.5 Safari/537.36" version="25.0.2">
  <diagram name="第 1 页" id="8CtCuOsys3hR2p4QYqbM">
    <mxGraphModel dx="1221" dy="823" grid="1" gridSize="10" guides="1" tooltips="1" connect="1" arrows="1" fold="1" page="1" pageScale="1" pageWidth="1169" pageHeight="827" math="0" shadow="0">
      <root>
        <mxCell id="0" />
        <mxCell id="1" parent="0" />
        <mxCell id="Sqm4q17-4cD9rXe7hXDx-5" value="" style="edgeStyle=orthogonalEdgeStyle;rounded=0;orthogonalLoop=1;jettySize=auto;html=1;" parent="1" source="AAzNbXR31eo6BCxiC4Rg-1" target="Sqm4q17-4cD9rXe7hXDx-2" edge="1">
          <mxGeometry relative="1" as="geometry" />
        </mxCell>
        <mxCell id="AAzNbXR31eo6BCxiC4Rg-1" value="&lt;font style=&quot;font-size: 14px;&quot;&gt;程序开始&lt;/font&gt;" style="ellipse;whiteSpace=wrap;html=1;" parent="1" vertex="1">
          <mxGeometry x="160" y="160" width="120" height="40" as="geometry" />
        </mxCell>
        <mxCell id="zPffARQcVFFwAuHFskO3-36" value="" style="edgeStyle=orthogonalEdgeStyle;rounded=0;orthogonalLoop=1;jettySize=auto;html=1;" edge="1" parent="1" source="Sqm4q17-4cD9rXe7hXDx-2" target="zPffARQcVFFwAuHFskO3-17">
          <mxGeometry relative="1" as="geometry" />
        </mxCell>
        <mxCell id="Sqm4q17-4cD9rXe7hXDx-2" value="&lt;span style=&quot;font-size: 14px;&quot;&gt;输入0-4不等的&lt;br&gt;opcode&lt;/span&gt;" style="shape=parallelogram;perimeter=parallelogramPerimeter;whiteSpace=wrap;html=1;fixedSize=1;" parent="1" vertex="1">
          <mxGeometry x="150" y="240" width="140" height="40" as="geometry" />
        </mxCell>
        <mxCell id="zPffARQcVFFwAuHFskO3-34" value="" style="edgeStyle=orthogonalEdgeStyle;rounded=0;orthogonalLoop=1;jettySize=auto;html=1;exitX=0.5;exitY=0;exitDx=0;exitDy=0;" edge="1" parent="1" source="zPffARQcVFFwAuHFskO3-15" target="zPffARQcVFFwAuHFskO3-26">
          <mxGeometry relative="1" as="geometry">
            <mxPoint x="910" y="470" as="sourcePoint" />
          </mxGeometry>
        </mxCell>
        <mxCell id="zPffARQcVFFwAuHFskO3-15" value="&lt;font style=&quot;font-size: 14px;&quot;&gt;opcode == 0&lt;/font&gt;" style="rhombus;whiteSpace=wrap;html=1;" vertex="1" parent="1">
          <mxGeometry x="800" y="320" width="120" height="40" as="geometry" />
        </mxCell>
        <mxCell id="zPffARQcVFFwAuHFskO3-22" value="" style="edgeStyle=orthogonalEdgeStyle;rounded=0;orthogonalLoop=1;jettySize=auto;html=1;" edge="1" parent="1" source="zPffARQcVFFwAuHFskO3-17" target="zPffARQcVFFwAuHFskO3-18">
          <mxGeometry relative="1" as="geometry" />
        </mxCell>
        <mxCell id="zPffARQcVFFwAuHFskO3-32" value="&lt;font style=&quot;font-size: 14px;&quot;&gt;否&lt;/font&gt;" style="edgeLabel;html=1;align=center;verticalAlign=middle;resizable=0;points=[];" vertex="1" connectable="0" parent="zPffARQcVFFwAuHFskO3-22">
          <mxGeometry x="-0.2167" y="2" relative="1" as="geometry">
            <mxPoint y="-8" as="offset" />
          </mxGeometry>
        </mxCell>
        <mxCell id="zPffARQcVFFwAuHFskO3-40" value="" style="edgeStyle=orthogonalEdgeStyle;rounded=0;orthogonalLoop=1;jettySize=auto;html=1;" edge="1" parent="1" source="zPffARQcVFFwAuHFskO3-17" target="zPffARQcVFFwAuHFskO3-39">
          <mxGeometry relative="1" as="geometry" />
        </mxCell>
        <mxCell id="zPffARQcVFFwAuHFskO3-17" value="&lt;font style=&quot;font-size: 14px;&quot;&gt;opcode == 1&lt;/font&gt;" style="rhombus;whiteSpace=wrap;html=1;" vertex="1" parent="1">
          <mxGeometry x="160" y="320" width="120" height="40" as="geometry" />
        </mxCell>
        <mxCell id="zPffARQcVFFwAuHFskO3-23" value="" style="edgeStyle=orthogonalEdgeStyle;rounded=0;orthogonalLoop=1;jettySize=auto;html=1;" edge="1" parent="1" source="zPffARQcVFFwAuHFskO3-18" target="zPffARQcVFFwAuHFskO3-19">
          <mxGeometry relative="1" as="geometry" />
        </mxCell>
        <mxCell id="zPffARQcVFFwAuHFskO3-31" value="&lt;font style=&quot;font-size: 14px;&quot;&gt;否&lt;/font&gt;" style="edgeLabel;html=1;align=center;verticalAlign=middle;resizable=0;points=[];" vertex="1" connectable="0" parent="zPffARQcVFFwAuHFskO3-23">
          <mxGeometry x="0.2833" y="2" relative="1" as="geometry">
            <mxPoint x="-6" y="-8" as="offset" />
          </mxGeometry>
        </mxCell>
        <mxCell id="zPffARQcVFFwAuHFskO3-46" value="" style="edgeStyle=orthogonalEdgeStyle;rounded=0;orthogonalLoop=1;jettySize=auto;html=1;" edge="1" parent="1" source="zPffARQcVFFwAuHFskO3-18" target="zPffARQcVFFwAuHFskO3-44">
          <mxGeometry relative="1" as="geometry" />
        </mxCell>
        <mxCell id="zPffARQcVFFwAuHFskO3-18" value="&lt;font style=&quot;font-size: 14px;&quot;&gt;opcode == 2&lt;/font&gt;" style="rhombus;whiteSpace=wrap;html=1;" vertex="1" parent="1">
          <mxGeometry x="320" y="320" width="120" height="40" as="geometry" />
        </mxCell>
        <mxCell id="zPffARQcVFFwAuHFskO3-24" value="" style="edgeStyle=orthogonalEdgeStyle;rounded=0;orthogonalLoop=1;jettySize=auto;html=1;" edge="1" parent="1" source="zPffARQcVFFwAuHFskO3-19" target="zPffARQcVFFwAuHFskO3-20">
          <mxGeometry relative="1" as="geometry" />
        </mxCell>
        <mxCell id="zPffARQcVFFwAuHFskO3-29" value="&lt;font style=&quot;font-size: 14px;&quot;&gt;否&lt;/font&gt;" style="edgeLabel;html=1;align=center;verticalAlign=middle;resizable=0;points=[];" vertex="1" connectable="0" parent="zPffARQcVFFwAuHFskO3-24">
          <mxGeometry x="-0.6167" y="4" relative="1" as="geometry">
            <mxPoint x="12" y="-6" as="offset" />
          </mxGeometry>
        </mxCell>
        <mxCell id="zPffARQcVFFwAuHFskO3-51" value="" style="edgeStyle=orthogonalEdgeStyle;rounded=0;orthogonalLoop=1;jettySize=auto;html=1;" edge="1" parent="1" source="zPffARQcVFFwAuHFskO3-19" target="zPffARQcVFFwAuHFskO3-50">
          <mxGeometry relative="1" as="geometry" />
        </mxCell>
        <mxCell id="zPffARQcVFFwAuHFskO3-19" value="&lt;font style=&quot;font-size: 14px;&quot;&gt;opcode == 3&lt;/font&gt;" style="rhombus;whiteSpace=wrap;html=1;" vertex="1" parent="1">
          <mxGeometry x="480" y="320" width="120" height="40" as="geometry" />
        </mxCell>
        <mxCell id="zPffARQcVFFwAuHFskO3-37" value="" style="edgeStyle=orthogonalEdgeStyle;rounded=0;orthogonalLoop=1;jettySize=auto;html=1;" edge="1" parent="1" source="zPffARQcVFFwAuHFskO3-20" target="zPffARQcVFFwAuHFskO3-15">
          <mxGeometry relative="1" as="geometry" />
        </mxCell>
        <mxCell id="zPffARQcVFFwAuHFskO3-38" value="否" style="edgeLabel;html=1;align=center;verticalAlign=middle;resizable=0;points=[];fontSize=14;" vertex="1" connectable="0" parent="zPffARQcVFFwAuHFskO3-37">
          <mxGeometry x="-0.2167" y="2" relative="1" as="geometry">
            <mxPoint y="-8" as="offset" />
          </mxGeometry>
        </mxCell>
        <mxCell id="zPffARQcVFFwAuHFskO3-55" value="" style="edgeStyle=orthogonalEdgeStyle;rounded=0;orthogonalLoop=1;jettySize=auto;html=1;" edge="1" parent="1" source="zPffARQcVFFwAuHFskO3-20" target="zPffARQcVFFwAuHFskO3-52">
          <mxGeometry relative="1" as="geometry" />
        </mxCell>
        <mxCell id="zPffARQcVFFwAuHFskO3-20" value="&lt;font style=&quot;font-size: 14px;&quot;&gt;opcode == 4&lt;/font&gt;" style="rhombus;whiteSpace=wrap;html=1;" vertex="1" parent="1">
          <mxGeometry x="640" y="320" width="120" height="40" as="geometry" />
        </mxCell>
        <mxCell id="zPffARQcVFFwAuHFskO3-26" value="&lt;font style=&quot;font-size: 14px;&quot;&gt;程序结束&lt;/font&gt;" style="ellipse;whiteSpace=wrap;html=1;" vertex="1" parent="1">
          <mxGeometry x="800" y="240" width="120" height="40" as="geometry" />
        </mxCell>
        <mxCell id="zPffARQcVFFwAuHFskO3-42" value="" style="edgeStyle=orthogonalEdgeStyle;rounded=0;orthogonalLoop=1;jettySize=auto;html=1;" edge="1" parent="1" source="zPffARQcVFFwAuHFskO3-39" target="zPffARQcVFFwAuHFskO3-41">
          <mxGeometry relative="1" as="geometry" />
        </mxCell>
        <mxCell id="zPffARQcVFFwAuHFskO3-39" value="接受形如&lt;br&gt;姓名 成绩&lt;br&gt;的输入" style="shape=parallelogram;perimeter=parallelogramPerimeter;whiteSpace=wrap;html=1;fixedSize=1;fontSize=14;" vertex="1" parent="1">
          <mxGeometry x="160" y="400" width="120" height="60" as="geometry" />
        </mxCell>
        <mxCell id="zPffARQcVFFwAuHFskO3-49" value="" style="edgeStyle=orthogonalEdgeStyle;rounded=0;orthogonalLoop=1;jettySize=auto;html=1;" edge="1" parent="1" source="zPffARQcVFFwAuHFskO3-41" target="zPffARQcVFFwAuHFskO3-48">
          <mxGeometry relative="1" as="geometry" />
        </mxCell>
        <mxCell id="zPffARQcVFFwAuHFskO3-41" value="&lt;font style=&quot;font-size: 14px;&quot;&gt;存入数组中&lt;/font&gt;" style="rounded=0;whiteSpace=wrap;html=1;" vertex="1" parent="1">
          <mxGeometry x="170" y="500" width="100" height="40" as="geometry" />
        </mxCell>
        <mxCell id="zPffARQcVFFwAuHFskO3-47" value="" style="edgeStyle=orthogonalEdgeStyle;rounded=0;orthogonalLoop=1;jettySize=auto;html=1;" edge="1" parent="1" source="zPffARQcVFFwAuHFskO3-44" target="zPffARQcVFFwAuHFskO3-45">
          <mxGeometry relative="1" as="geometry" />
        </mxCell>
        <mxCell id="zPffARQcVFFwAuHFskO3-44" value="&lt;font style=&quot;font-size: 14px;&quot;&gt;进行快速排序&lt;/font&gt;" style="rounded=0;whiteSpace=wrap;html=1;" vertex="1" parent="1">
          <mxGeometry x="320" y="400" width="120" height="40" as="geometry" />
        </mxCell>
        <mxCell id="zPffARQcVFFwAuHFskO3-60" style="edgeStyle=orthogonalEdgeStyle;rounded=0;orthogonalLoop=1;jettySize=auto;html=1;exitX=0.5;exitY=1;exitDx=0;exitDy=0;" edge="1" parent="1" source="zPffARQcVFFwAuHFskO3-45">
          <mxGeometry relative="1" as="geometry">
            <mxPoint x="380" y="680" as="targetPoint" />
          </mxGeometry>
        </mxCell>
        <mxCell id="zPffARQcVFFwAuHFskO3-45" value="输出&lt;div&gt;Reorder finished!&lt;br&gt;&lt;/div&gt;" style="shape=parallelogram;perimeter=parallelogramPerimeter;whiteSpace=wrap;html=1;fixedSize=1;fontSize=14;" vertex="1" parent="1">
          <mxGeometry x="300" y="480" width="160" height="40" as="geometry" />
        </mxCell>
        <mxCell id="zPffARQcVFFwAuHFskO3-59" style="edgeStyle=orthogonalEdgeStyle;rounded=0;orthogonalLoop=1;jettySize=auto;html=1;exitX=0.5;exitY=1;exitDx=0;exitDy=0;" edge="1" parent="1" source="zPffARQcVFFwAuHFskO3-48">
          <mxGeometry relative="1" as="geometry">
            <mxPoint x="220" y="680" as="targetPoint" />
          </mxGeometry>
        </mxCell>
        <mxCell id="zPffARQcVFFwAuHFskO3-48" value="输出&lt;div&gt;%d records are input!&lt;/div&gt;" style="shape=parallelogram;perimeter=parallelogramPerimeter;whiteSpace=wrap;html=1;fixedSize=1;fontSize=14;" vertex="1" parent="1">
          <mxGeometry x="130" y="580" width="180" height="40" as="geometry" />
        </mxCell>
        <mxCell id="zPffARQcVFFwAuHFskO3-61" style="edgeStyle=orthogonalEdgeStyle;rounded=0;orthogonalLoop=1;jettySize=auto;html=1;exitX=0.5;exitY=1;exitDx=0;exitDy=0;" edge="1" parent="1" source="zPffARQcVFFwAuHFskO3-50">
          <mxGeometry relative="1" as="geometry">
            <mxPoint x="540" y="680" as="targetPoint" />
          </mxGeometry>
        </mxCell>
        <mxCell id="zPffARQcVFFwAuHFskO3-50" value="&lt;font style=&quot;font-size: 14px;&quot;&gt;按格式输出&lt;br&gt;数组数据&lt;/font&gt;" style="shape=parallelogram;perimeter=parallelogramPerimeter;whiteSpace=wrap;html=1;fixedSize=1;" vertex="1" parent="1">
          <mxGeometry x="480" y="400" width="120" height="40" as="geometry" />
        </mxCell>
        <mxCell id="zPffARQcVFFwAuHFskO3-56" value="" style="edgeStyle=orthogonalEdgeStyle;rounded=0;orthogonalLoop=1;jettySize=auto;html=1;" edge="1" parent="1" source="zPffARQcVFFwAuHFskO3-52" target="zPffARQcVFFwAuHFskO3-53">
          <mxGeometry relative="1" as="geometry" />
        </mxCell>
        <mxCell id="zPffARQcVFFwAuHFskO3-52" value="&lt;font style=&quot;font-size: 14px;&quot;&gt;进行快速排序&lt;/font&gt;" style="rounded=0;whiteSpace=wrap;html=1;" vertex="1" parent="1">
          <mxGeometry x="640" y="400" width="120" height="40" as="geometry" />
        </mxCell>
        <mxCell id="zPffARQcVFFwAuHFskO3-57" value="" style="edgeStyle=orthogonalEdgeStyle;rounded=0;orthogonalLoop=1;jettySize=auto;html=1;" edge="1" parent="1" source="zPffARQcVFFwAuHFskO3-53" target="zPffARQcVFFwAuHFskO3-54">
          <mxGeometry relative="1" as="geometry" />
        </mxCell>
        <mxCell id="zPffARQcVFFwAuHFskO3-53" value="&lt;font style=&quot;font-size: 14px;&quot;&gt;进行二分搜索&lt;/font&gt;" style="rounded=0;whiteSpace=wrap;html=1;" vertex="1" parent="1">
          <mxGeometry x="640" y="480" width="120" height="40" as="geometry" />
        </mxCell>
        <mxCell id="zPffARQcVFFwAuHFskO3-58" style="edgeStyle=orthogonalEdgeStyle;rounded=0;orthogonalLoop=1;jettySize=auto;html=1;exitX=0.5;exitY=1;exitDx=0;exitDy=0;" edge="1" parent="1" source="zPffARQcVFFwAuHFskO3-54">
          <mxGeometry relative="1" as="geometry">
            <mxPoint x="220" y="220" as="targetPoint" />
            <Array as="points">
              <mxPoint x="700" y="680" />
              <mxPoint x="100" y="680" />
            </Array>
          </mxGeometry>
        </mxCell>
        <mxCell id="zPffARQcVFFwAuHFskO3-54" value="输出符合条件的记录" style="shape=parallelogram;perimeter=parallelogramPerimeter;whiteSpace=wrap;html=1;fixedSize=1;fontSize=14;" vertex="1" parent="1">
          <mxGeometry x="620" y="560" width="160" height="40" as="geometry" />
        </mxCell>
      </root>
    </mxGraphModel>
  </diagram>
</mxfile>
